<svg width="103" height="147" viewBox="0 0 103 147" fill="none" xmlns="http://www.w3.org/2000/svg">
<path opacity="0.05" d="M102.244 146.423H2.284V119.903L49.612 69.9227C54.78 64.3467 58.316 60.0627 60.22 57.0707C62.26 53.9427 63.28 50.8827 63.28 47.8907C63.28 44.2187 62.124 41.3627 59.812 39.3227C57.636 37.1467 54.576 36.0587 50.632 36.0587C42.064 36.0587 35.672 41.0227 31.456 50.9507L0.0400001 33.4067C4.528 22.9347 11.192 14.8427 20.032 9.13066C29.008 3.41866 39.072 0.562662 50.224 0.562662C63.824 0.562662 75.452 4.64266 85.108 12.8027C94.9 20.8267 99.796 31.8427 99.796 45.8507C99.796 53.7387 97.96 61.2187 94.288 68.2907C90.616 75.2267 84.836 82.7747 76.948 90.9347L57.568 111.131H102.244V146.423Z" fill="black"/>
</svg>
